<svg xmlns="http://www.w3.org/2000/svg" viewBox="0 0 56.169 66">
  <defs>
    <style>
      .cls-1 {
        fill: none;
        stroke: #49e6ae;
        stroke-width: 3px;
      }
    </style>
  </defs>
  <path id="calendar" class="cls-1" d="M1.424,24.662H51.745a1.455,1.455,0,0,1,1.424,1.477V57.094A5.806,5.806,0,0,1,47.472,63H5.7A5.806,5.806,0,0,1,0,57.094V26.138A1.455,1.455,0,0,1,1.424,24.662Zm51.745-6.451v-4.43a5.806,5.806,0,0,0-5.7-5.906h-5.7v-6.4A1.455,1.455,0,0,0,40.351,0H35.6A1.455,1.455,0,0,0,34.18,1.477v6.4H18.989v-6.4A1.455,1.455,0,0,0,17.565,0H12.818a1.455,1.455,0,0,0-1.424,1.477v6.4H5.7A5.806,5.806,0,0,0,0,13.781v4.43a1.455,1.455,0,0,0,1.424,1.477H51.745A1.455,1.455,0,0,0,53.169,18.211Z" transform="translate(1.5 1.5)"/>
</svg>
