<svg xmlns="http://www.w3.org/2000/svg" viewBox="0 0 45 51.384"><defs><style>.a,.b{fill:none;}.a{stroke-linecap:round;}.b{stroke:#49e6ae;stroke-width:3px;}.c,.e{fill:#49e6ae;}.c{font-size:13px;font-family:ArialRoundedMTBold, Arial Rounded MT;letter-spacing:0.03em;}.d,.e{stroke:none;}</style></defs><g transform="translate(-28 -135)"><g transform="translate(8 -3)"><g transform="translate(20 138)"><g class="a" transform="translate(0 0)"><path class="d" d="M9,0H36a9,9,0,0,1,9,9V42.384a9,9,0,0,1-9,9H9a9,9,0,0,1-9-9V9A9,9,0,0,1,9,0Z"/><path class="e" d="M 9 3.000003814697266 C 5.69158935546875 3.000003814697266 3 5.691593170166016 3 9.000003814697266 L 3 42.38418197631836 C 3 45.69259262084961 5.69158935546875 48.38418197631836 9 48.38418197631836 L 36 48.38418197631836 C 39.30841064453125 48.38418197631836 42 45.69259262084961 42 42.38418197631836 L 42 9.000003814697266 C 42 5.691593170166016 39.30841064453125 3.000003814697266 36 3.000003814697266 L 9 3.000003814697266 M 9 3.814697265625e-06 L 36 3.814697265625e-06 C 40.97055816650391 3.814697265625e-06 45 4.029434204101563 45 9.000003814697266 L 45 42.38418197631836 C 45 47.35474395751953 40.97055816650391 51.38418197631836 36 51.38418197631836 L 9 51.38418197631836 C 4.029441833496094 51.38418197631836 0 47.35474395751953 0 42.38418197631836 L 0 9.000003814697266 C 0 4.029434204101563 4.029441833496094 3.814697265625e-06 9 3.814697265625e-06 Z"/></g></g></g><path class="b" d="M0,0H42" transform="translate(29.5 157.5)"/><text class="c" transform="translate(34 152)"><tspan x="0" y="0">Q</tspan></text><text class="c" transform="translate(35 174)"><tspan x="0" y="0">A</tspan></text></g></svg>