<svg xmlns="http://www.w3.org/2000/svg" viewBox="0 0 45 51.384"><defs><style>.a,.c{fill:none;}.b,.d{fill:#42baac;}.c{stroke:#42baac;stroke-width:3px;}.d{font-size:13px;font-family:ArialRoundedMTBold, Arial Rounded MT;letter-spacing:0.03em;}</style></defs><g transform="translate(-28 -135)"><g transform="translate(8 -3)"><g transform="translate(20 138)"><path class="a" d="M9,0H36a9,9,0,0,1,9,9V42.384a9,9,0,0,1-9,9H9a9,9,0,0,1-9-9V9A9,9,0,0,1,9,0Z"/><path class="b" d="M9,3A6.007,6.007,0,0,0,3,9V42.384a6.007,6.007,0,0,0,6,6H36a6.007,6.007,0,0,0,6-6V9a6.007,6.007,0,0,0-6-6H9M9,0H36a9,9,0,0,1,9,9V42.384a9,9,0,0,1-9,9H9a9,9,0,0,1-9-9V9A9,9,0,0,1,9,0Z"/></g></g><path class="c" d="M0,0H42" transform="translate(29.5 157.5)"/><text class="d" transform="translate(34 152)"><tspan x="0" y="0">Q</tspan></text><text class="d" transform="translate(35 174)"><tspan x="0" y="0">A</tspan></text></g></svg>