<svg xmlns="http://www.w3.org/2000/svg" viewBox="0 0 66 66">
  <defs>
    <style>
      .cls-1 {
        fill: none;
        stroke: #49e6ae;
        stroke-width: 3px;
      }
    </style>
  </defs>
  <path id="plus-circle" class="cls-1" d="M39.5,8A31.5,31.5,0,1,0,71,39.5,31.495,31.495,0,0,0,39.5,8ZM57.79,43.056a1.529,1.529,0,0,1-1.524,1.524H44.581V56.266a1.529,1.529,0,0,1-1.524,1.524H35.944a1.529,1.529,0,0,1-1.524-1.524V44.581H22.734a1.529,1.529,0,0,1-1.524-1.524V35.944a1.529,1.529,0,0,1,1.524-1.524H34.419V22.734a1.529,1.529,0,0,1,1.524-1.524h7.113a1.529,1.529,0,0,1,1.524,1.524V34.419H56.266a1.529,1.529,0,0,1,1.524,1.524Z" transform="translate(-6.5 -6.5)"/>
</svg>
