<svg xmlns="http://www.w3.org/2000/svg" viewBox="0 0 576 640"><defs><style>.a{fill:#49e6ae;}</style></defs><g transform="translate(3 -170)"><path class="a" d="M512,448H256c-89.6,0-160,70.4-160,160v64c0,19.2,12.8,32,32,32s32-12.8,32-32V608c0-54.4,41.6-96,96-96H512c54.4,0,96,41.6,96,96v64c0,19.2,12.8,32,32,32s32-12.8,32-32V608C672,518.4,601.6,448,512,448Z" transform="translate(-99 106)"/><path class="a" d="M384,384c89.6,0,160-70.4,160-160S473.6,64,384,64,224,134.4,224,224,294.4,384,384,384Zm0-256c54.4,0,96,41.6,96,96s-41.6,96-96,96-96-41.6-96-96S329.6,128,384,128Z" transform="translate(-99 106)"/></g></svg>